{"scene": 0, "scenes": [{"nodes": [0]}], "asset": {"version": "2.0", "generator": "https://github.com/mikedh/trimesh"}, "accessors": [{"bufferView": 0, "componentType": 5125, "count": 3840, "max": [641], "min": [0], "type": "SCALAR"}, {"bufferView": 1, "componentType": 5126, "count": 642, "type": "VEC3", "byteOffset": 0, "max": [0.17873998, 0.49958223, 0.2327224], "min": [-0.19964433, -0.49713939, -0.21870854]}, {"bufferView": 2, "componentType": 5121, "normalized": true, "count": 642, "type": "VEC4", "byteOffset": 0}], "meshes": [{"name": "chair_out.obj", "primitives": [{"attributes": {"POSITION": 1, "COLOR_0": 2}, "indices": 0, "mode": 4}]}], "cameras": [{"name": "camera_91TXDQ", "type": "perspective", "perspective": {"aspectRatio": 1.3333333333333333, "yfov": 0.7853981633974483, "znear": 0.001}}], "nodes": [{"name": "world", "children": [1]}, {"name": "chair_out.obj_FTDEDLQXBDGP", "mesh": 0}], "buffers": [{"uri": "gltf_buffer_0.bin", "byteLength": 23064}, {"uri": "gltf_buffer_1.bin", "byteLength": 10272}, {"uri": "gltf_buffer_2.bin", "byteLength": 2568}], "bufferViews": [{"buffer": 0, "byteOffset": 0, "byteLength": 15360}, {"buffer": 1, "byteOffset": 0, "byteLength": 7704}, {"buffer": 2, "byteOffset": 0, "byteLength": 2568}]}